<svg width="330" height="315" viewBox="0 0 330 315" fill="none" xmlns="http://www.w3.org/2000/svg">
<g clip-path="url(#clip0_70_3225)">
<path d="M165 33.75C82.1016 33.75 15 100.838 15 183.75V211.875C15 215.357 15.9696 218.77 17.8002 221.733C19.6308 224.695 22.2502 227.088 25.3646 228.646L33.7922 232.859C34.9705 268.068 63.8795 296.25 99.375 296.25H113.438C121.204 296.25 127.5 289.954 127.5 282.188V179.062C127.5 171.296 121.204 165 113.438 165H99.375C81.0105 165 64.4115 172.546 52.5 184.703V183.75C52.5 121.717 102.967 71.25 165 71.25C227.033 71.25 277.5 121.717 277.5 183.75V184.703C265.588 172.546 248.989 165 230.625 165H216.562C208.796 165 202.5 171.296 202.5 179.062V282.188C202.5 289.954 208.796 296.25 216.562 296.25H230.625C266.121 296.25 295.029 268.068 296.208 232.859L304.635 228.646C307.749 227.089 310.369 224.695 312.2 221.733C314.03 218.771 315 215.357 315 211.875V183.75C315 100.852 247.912 33.75 165 33.75Z" fill="#262626"/>
</g>
<line x1="7.92893" y1="307.929" x2="307.929" y2="7.92894" stroke="#262626" stroke-width="20"/>
<line x1="22.0711" y1="7.92893" x2="322.071" y2="307.929" stroke="#262626" stroke-width="20"/>
<defs>
<clipPath id="clip0_70_3225">
<rect width="300" height="300" fill="white" transform="translate(15 15)"/>
</clipPath>
</defs>
</svg>
