<svg width="178" height="37" viewBox="0 0 178 37" fill="none" xmlns="http://www.w3.org/2000/svg">
<path d="M58.4 24L55.48 18.7H54.66V24H51.24V9.96H56.98C58.0867 9.96 59.0267 10.1533 59.8 10.54C60.5867 10.9267 61.1733 11.46 61.56 12.14C61.9467 12.8067 62.14 13.5533 62.14 14.38C62.14 15.3133 61.8733 16.1467 61.34 16.88C60.82 17.6133 60.0467 18.1333 59.02 18.44L62.26 24H58.4ZM54.66 16.28H56.78C57.4067 16.28 57.8733 16.1267 58.18 15.82C58.5 15.5133 58.66 15.08 58.66 14.52C58.66 13.9867 58.5 13.5667 58.18 13.26C57.8733 12.9533 57.4067 12.8 56.78 12.8H54.66V16.28ZM74.8069 18.24C74.8069 18.56 74.7869 18.8933 74.7469 19.24H67.0069C67.0602 19.9333 67.2802 20.4667 67.6669 20.84C68.0669 21.2 68.5535 21.38 69.1269 21.38C69.9802 21.38 70.5735 21.02 70.9069 20.3H74.5469C74.3602 21.0333 74.0202 21.6933 73.5269 22.28C73.0469 22.8667 72.4402 23.3267 71.7069 23.66C70.9735 23.9933 70.1535 24.16 69.2469 24.16C68.1535 24.16 67.1802 23.9267 66.3269 23.46C65.4735 22.9933 64.8069 22.3267 64.3269 21.46C63.8469 20.5933 63.6069 19.58 63.6069 18.42C63.6069 17.26 63.8402 16.2467 64.3069 15.38C64.7869 14.5133 65.4535 13.8467 66.3069 13.38C67.1602 12.9133 68.1402 12.68 69.2469 12.68C70.3269 12.68 71.2869 12.9067 72.1269 13.36C72.9669 13.8133 73.6202 14.46 74.0869 15.3C74.5669 16.14 74.8069 17.12 74.8069 18.24ZM71.3069 17.34C71.3069 16.7533 71.1069 16.2867 70.7069 15.94C70.3069 15.5933 69.8069 15.42 69.2069 15.42C68.6335 15.42 68.1469 15.5867 67.7469 15.92C67.3602 16.2533 67.1202 16.7267 67.0269 17.34H71.3069ZM75.9311 18.4C75.9311 17.2533 76.1444 16.2467 76.5711 15.38C77.0111 14.5133 77.6044 13.8467 78.3511 13.38C79.0978 12.9133 79.9311 12.68 80.8511 12.68C81.6378 12.68 82.3244 12.84 82.9111 13.16C83.5111 13.48 83.9711 13.9 84.2911 14.42V12.84H87.7111V24H84.2911V22.42C83.9578 22.94 83.4911 23.36 82.8911 23.68C82.3044 24 81.6178 24.16 80.8311 24.16C79.9244 24.16 79.0978 23.9267 78.3511 23.46C77.6044 22.98 77.0111 22.3067 76.5711 21.44C76.1444 20.56 75.9311 19.5467 75.9311 18.4ZM84.2911 18.42C84.2911 17.5667 84.0511 16.8933 83.5711 16.4C83.1044 15.9067 82.5311 15.66 81.8511 15.66C81.1711 15.66 80.5911 15.9067 80.1111 16.4C79.6444 16.88 79.4111 17.5467 79.4111 18.4C79.4111 19.2533 79.6444 19.9333 80.1111 20.44C80.5911 20.9333 81.1711 21.18 81.8511 21.18C82.5311 21.18 83.1044 20.9333 83.5711 20.44C84.0511 19.9467 84.2911 19.2733 84.2911 18.42ZM89.5053 18.42C89.5053 17.26 89.7386 16.2467 90.2053 15.38C90.6853 14.5133 91.3453 13.8467 92.1853 13.38C93.0386 12.9133 94.012 12.68 95.1053 12.68C96.5053 12.68 97.672 13.0467 98.6053 13.78C99.552 14.5133 100.172 15.5467 100.465 16.88H96.8253C96.5186 16.0267 95.9253 15.6 95.0453 15.6C94.4186 15.6 93.9186 15.8467 93.5453 16.34C93.172 16.82 92.9853 17.5133 92.9853 18.42C92.9853 19.3267 93.172 20.0267 93.5453 20.52C93.9186 21 94.4186 21.24 95.0453 21.24C95.9253 21.24 96.5186 20.8133 96.8253 19.96H100.465C100.172 21.2667 99.552 22.2933 98.6053 23.04C97.6586 23.7867 96.492 24.16 95.1053 24.16C94.012 24.16 93.0386 23.9267 92.1853 23.46C91.3453 22.9933 90.6853 22.3267 90.2053 21.46C89.7386 20.5933 89.5053 19.58 89.5053 18.42ZM108.515 21.1V24H106.775C105.535 24 104.568 23.7 103.875 23.1C103.181 22.4867 102.835 21.4933 102.835 20.12V15.68H101.475V12.84H102.835V10.12H106.255V12.84H108.495V15.68H106.255V20.16C106.255 20.4933 106.335 20.7333 106.495 20.88C106.655 21.0267 106.921 21.1 107.295 21.1H108.515ZM130.558 9.96V24H127.138V15.58L123.998 24H121.238L118.078 15.56V24H114.658V9.96H118.698L122.638 19.68L126.538 9.96H130.558ZM144.037 12.84V24H140.617V22.48C140.271 22.9733 139.797 23.3733 139.197 23.68C138.611 23.9733 137.957 24.12 137.237 24.12C136.384 24.12 135.631 23.9333 134.977 23.56C134.324 23.1733 133.817 22.62 133.457 21.9C133.097 21.18 132.917 20.3333 132.917 19.36V12.84H136.317V18.9C136.317 19.6467 136.511 20.2267 136.897 20.64C137.284 21.0533 137.804 21.26 138.457 21.26C139.124 21.26 139.651 21.0533 140.037 20.64C140.424 20.2267 140.617 19.6467 140.617 18.9V12.84H144.037ZM151.034 24.16C150.061 24.16 149.194 23.9933 148.434 23.66C147.674 23.3267 147.074 22.8733 146.634 22.3C146.194 21.7133 145.947 21.06 145.894 20.34H149.274C149.314 20.7267 149.494 21.04 149.814 21.28C150.134 21.52 150.527 21.64 150.994 21.64C151.421 21.64 151.747 21.56 151.974 21.4C152.214 21.2267 152.334 21.0067 152.334 20.74C152.334 20.42 152.167 20.1867 151.834 20.04C151.501 19.88 150.961 19.7067 150.214 19.52C149.414 19.3333 148.747 19.14 148.214 18.94C147.681 18.7267 147.221 18.4 146.834 17.96C146.447 17.5067 146.254 16.9 146.254 16.14C146.254 15.5 146.427 14.92 146.774 14.4C147.134 13.8667 147.654 13.4467 148.334 13.14C149.027 12.8333 149.847 12.68 150.794 12.68C152.194 12.68 153.294 13.0267 154.094 13.72C154.907 14.4133 155.374 15.3333 155.494 16.48H152.334C152.281 16.0933 152.107 15.7867 151.814 15.56C151.534 15.3333 151.161 15.22 150.694 15.22C150.294 15.22 149.987 15.3 149.774 15.46C149.561 15.6067 149.454 15.8133 149.454 16.08C149.454 16.4 149.621 16.64 149.954 16.8C150.301 16.96 150.834 17.12 151.554 17.28C152.381 17.4933 153.054 17.7067 153.574 17.92C154.094 18.12 154.547 18.4533 154.934 18.92C155.334 19.3733 155.541 19.9867 155.554 20.76C155.554 21.4133 155.367 22 154.994 22.52C154.634 23.0267 154.107 23.4267 153.414 23.72C152.734 24.0133 151.941 24.16 151.034 24.16ZM159.366 11.68C158.766 11.68 158.273 11.5067 157.886 11.16C157.513 10.8 157.326 10.36 157.326 9.84C157.326 9.30667 157.513 8.86667 157.886 8.52C158.273 8.16 158.766 7.98 159.366 7.98C159.953 7.98 160.433 8.16 160.806 8.52C161.193 8.86667 161.386 9.30667 161.386 9.84C161.386 10.36 161.193 10.8 160.806 11.16C160.433 11.5067 159.953 11.68 159.366 11.68ZM161.066 12.84V24H157.646V12.84H161.066ZM162.865 18.42C162.865 17.26 163.098 16.2467 163.565 15.38C164.045 14.5133 164.705 13.8467 165.545 13.38C166.398 12.9133 167.371 12.68 168.465 12.68C169.865 12.68 171.031 13.0467 171.965 13.78C172.911 14.5133 173.531 15.5467 173.825 16.88H170.185C169.878 16.0267 169.285 15.6 168.405 15.6C167.778 15.6 167.278 15.8467 166.905 16.34C166.531 16.82 166.345 17.5133 166.345 18.42C166.345 19.3267 166.531 20.0267 166.905 20.52C167.278 21 167.778 21.24 168.405 21.24C169.285 21.24 169.878 20.8133 170.185 19.96H173.825C173.531 21.2667 172.911 22.2933 171.965 23.04C171.018 23.7867 169.851 24.16 168.465 24.16C167.371 24.16 166.398 23.9267 165.545 23.46C164.705 22.9933 164.045 22.3267 163.565 21.46C163.098 20.5933 162.865 19.58 162.865 18.42Z" fill="white"/>
<path d="M33.7204 11.7068C33.285 11.5616 32.8495 11.4246 32.4141 11.2956C32.4867 10.9972 32.5512 10.6989 32.6157 10.4005C33.6075 5.59486 32.9544 1.73258 30.7531 0.458595C28.6325 -0.758951 25.1734 0.506974 21.6739 3.55487C21.3272 3.85321 20.9885 4.16767 20.666 4.48214C20.4483 4.2725 20.2225 4.06285 19.9968 3.86127C16.328 0.603733 12.6512 -0.767014 10.4499 0.515038C8.33737 1.74065 7.70843 5.37716 8.59539 9.92481C8.68408 10.3763 8.78084 10.8198 8.89373 11.2714C8.37768 11.4165 7.8697 11.5778 7.39397 11.7471C3.08821 13.2388 0 15.5932 0 18.0283C0 20.5441 3.28979 23.0678 7.76488 24.5999C8.12772 24.7208 8.49057 24.8418 8.86147 24.9466C8.74053 25.4304 8.6357 25.9061 8.53895 26.398C7.69231 30.873 8.35349 34.4209 10.4661 35.6384C12.6431 36.8963 16.3038 35.6061 19.8678 32.4857C20.15 32.2357 20.4322 31.9777 20.7144 31.7036C21.0692 32.0503 21.4401 32.3809 21.811 32.7034C25.2621 35.6707 28.6728 36.8721 30.7773 35.6545C32.9544 34.3967 33.6639 30.5828 32.7447 25.9384C32.6722 25.5836 32.5915 25.2207 32.5028 24.8498C32.7608 24.7772 33.0108 24.6966 33.2608 24.616C37.9132 23.0759 41.2837 20.5844 41.2837 18.0283C41.2837 15.5852 38.1068 13.2146 33.7204 11.7068ZM22.8108 4.86111C25.8104 2.24863 28.6083 1.2246 29.8823 1.95835C31.245 2.74048 31.7691 5.90126 30.9144 10.0538C30.8579 10.328 30.8015 10.5941 30.7289 10.8601C28.9389 10.457 27.1247 10.1667 25.3024 10.0054C24.2542 8.50568 23.1092 7.07043 21.8674 5.72387C22.1819 5.42553 22.4883 5.14332 22.8108 4.86111ZM13.4817 22.2131C13.8929 22.9146 14.3122 23.6161 14.7557 24.3015C13.4978 24.1644 12.248 23.9629 11.0144 23.6968C11.3691 22.5357 11.8126 21.3343 12.3287 20.1086C12.6996 20.8182 13.0785 21.5197 13.4817 22.2131ZM11.0385 12.5131C12.1996 12.2551 13.4333 12.0454 14.7154 11.8842C14.288 12.5534 13.8687 13.2388 13.4736 13.9322C13.0785 14.6176 12.6915 15.3191 12.3287 16.0287C11.8207 14.8272 11.3933 13.65 11.0385 12.5131ZM13.2479 18.0687C13.78 16.9559 14.3606 15.8674 14.9734 14.795C15.5862 13.7226 16.2474 12.6824 16.9408 11.6584C18.1503 11.5697 19.384 11.5213 20.6418 11.5213C21.8997 11.5213 23.1414 11.5697 24.3428 11.6584C25.0282 12.6744 25.6813 13.7145 26.3022 14.7789C26.9231 15.8432 27.5036 16.9317 28.0519 18.0364C27.5117 19.1491 26.9311 20.2457 26.3103 21.3262C25.6975 22.3986 25.0443 23.4388 24.359 24.4708C23.1576 24.5595 21.9078 24.5999 20.6418 24.5999C19.3759 24.5999 18.1503 24.5595 16.965 24.487C16.2635 23.4629 15.6023 22.4147 14.9815 21.3423C14.3606 20.2699 13.7881 19.1814 13.2479 18.0687ZM27.81 22.197C28.2213 21.4875 28.6083 20.7698 28.9873 20.0441C29.5033 21.2133 29.9548 22.3986 30.3499 23.6161C29.1001 23.8984 27.8342 24.1161 26.5602 24.2612C26.9956 23.5839 27.4069 22.8905 27.81 22.197ZM28.9711 16.0287C28.5922 15.3191 28.2051 14.6095 27.802 13.9161C27.4069 13.2307 26.9956 12.5534 26.5683 11.8842C27.8665 12.0454 29.1082 12.2631 30.2693 12.5292C29.8984 13.7226 29.463 14.8837 28.9711 16.0287ZM20.658 6.95755C21.5046 7.87675 22.3029 8.84434 23.0447 9.84418C21.4482 9.77161 19.8436 9.77161 18.2471 9.84418C19.0373 8.80402 19.8516 7.83644 20.658 6.95755ZM11.3046 2.0148C12.6592 1.2246 15.6668 2.35345 18.8357 5.15945C19.0373 5.33684 19.2388 5.53036 19.4485 5.72387C18.1987 7.07043 17.0456 8.50568 15.9894 10.0054C14.1671 10.1667 12.3609 10.4489 10.5709 10.844C10.4661 10.4328 10.3774 10.0135 10.2887 9.59422C9.53072 5.69162 10.0306 2.74855 11.3046 2.0148ZM9.32914 23.2694C8.99048 23.1727 8.65989 23.0678 8.3293 22.955C6.61184 22.4147 4.66054 21.56 3.24948 20.4392C2.43509 19.8748 1.88679 19.004 1.73359 18.0283C1.73359 16.5528 4.28157 14.666 7.95839 13.3839C8.418 13.2227 8.88566 13.0775 9.35333 12.9404C9.90163 14.6902 10.5628 16.4076 11.3288 18.0687C10.5547 19.7539 9.8855 21.4955 9.32914 23.2694ZM18.7309 31.1714C17.4004 32.3889 15.8603 33.3565 14.1832 34.0177C13.2882 34.445 12.2561 34.4854 11.3369 34.1225C10.0548 33.3807 9.52266 30.5344 10.2483 26.7044C10.337 26.2528 10.4338 25.8013 10.5467 25.3578C12.3528 25.7448 14.1751 26.0109 16.0216 26.148C17.086 27.6558 18.2551 29.0991 19.5049 30.4538C19.2469 30.7037 18.9889 30.9456 18.7309 31.1714ZM20.7063 29.212C19.8839 28.3251 19.0614 27.3414 18.2632 26.2851C19.0373 26.3173 19.8355 26.3334 20.6418 26.3334C21.4723 26.3334 22.2867 26.3173 23.093 26.277C22.3512 27.301 21.553 28.2767 20.7063 29.212ZM31.245 31.631C31.1724 32.6147 30.6886 33.5339 29.9145 34.1548C28.6325 34.8966 25.899 33.929 22.9479 31.3971C22.6093 31.1069 22.2706 30.7924 21.9239 30.4699C23.1576 29.1072 24.2945 27.6639 25.3266 26.148C27.173 25.9948 29.0114 25.7126 30.8257 25.3014C30.9063 25.6319 30.9789 25.9625 31.0434 26.2851C31.4385 28.0267 31.503 29.8409 31.245 31.631ZM32.7125 22.963C32.4867 23.0356 32.2609 23.1082 32.0271 23.1727C31.4627 21.4149 30.7692 19.6974 29.971 18.0283C30.745 16.3834 31.3982 14.6902 31.9465 12.9566C32.3658 13.0775 32.7689 13.2065 33.1559 13.3355C36.9134 14.6257 39.5501 16.5447 39.5501 18.0122C39.5501 19.5926 36.736 21.6326 32.7125 22.963ZM20.6418 21.7535C22.6818 21.7535 24.3348 20.1006 24.3348 18.0606C24.3348 16.0206 22.6818 14.3676 20.6418 14.3676C18.6018 14.3676 16.9489 16.0206 16.9489 18.0606C16.9489 20.1006 18.6018 21.7535 20.6418 21.7535Z" fill="#1DB954"/>
</svg>
